PathFileType	4	(X/Y/Z)	c:/Users/goper/Files/vsCode/490R/osim_files/A04/A04_Slow_06.trc
DataRate	CameraRate	NumFrames	NumMarkers	Units                	OrigDataRate	OrigDataStartFrame	OrigNumFrames
120.00	120.00	6	36	mm	120.0	1422	2275
                Frame#	Time	LPSIS			LASIS			LTH1			LTH2			LTH3			LTH4			LLFE			LMFE			LSH1			LSH2			LSH3			LSH4			LLMAL			LMMAL			LCAL			LMTP5			LTOE			LMTP1			RPSIS			RASIS			RTH1			RTH2			RTH3			RTH4			RLFE			RMFE			RSH1			RSH2			RSH3			RSH4			RLMAL			RMMAL			RCAL			RMTP1			RTOE			RMTP5		
		X1	Y1	Z1	X2	Y2	Z2	X3	Y3	Z3	X4	Y4	Z4	X5	Y5	Z5	X6	Y6	Z6	X7	Y7	Z7	X8	Y8	Z8	X9	Y9	Z9	X10	Y10	Z10	X11	Y11	Z11	X12	Y12	Z12	X13	Y13	Z13	X14	Y14	Z14	X15	Y15	Z15	X16	Y16	Z16	X17	Y17	Z17	X18	Y18	Z18	X19	Y19	Z19	X20	Y20	Z20	X21	Y21	Z21	X22	Y22	Z22	X23	Y23	Z23	X24	Y24	Z24	X25	Y25	Z25	X26	Y26	Z26	X27	Y27	Z27	X28	Y28	Z28	X29	Y29	Z29	X30	Y30	Z30	X31	Y31	Z31	X32	Y32	Z32	X33	Y33	Z33	X34	Y34	Z34	X35	Y35	Z35	X36	Y36	Z36

1422	11.84167	769.89697	1023.25391	443.10339	543.84210	984.09912	521.90729	564.52246	672.43622	551.54437	548.53656	631.49304	552.66913	506.54761	692.24255	552.65228	496.93063	648.43073	553.98004	496.14389	519.20520	548.28473	465.70673	529.03943	412.30389	503.01913	411.61252	544.89136	485.81781	372.45071	542.92767	443.38565	430.02505	540.63715	435.52267	387.92850	537.85229	429.40759	102.64585	495.08661	397.32587	110.73257	415.69989	479.19641	58.78791	432.45230	288.57272	66.61578	547.58691	235.68922	87.74922	492.85733	245.04657	72.16222	446.87219	771.18164	1010.30188	337.01315	549.38049	982.70197	235.53865	734.74432	707.54053	201.72055	739.72406	666.17090	200.83559	676.61523	695.07587	188.00191	689.84692	649.41449	193.92149	728.63623	512.33588	212.96474	718.46527	505.92941	331.71472	900.20734	368.99814	220.29659	923.42358	327.74631	227.39088	850.71252	333.40631	214.07190	882.41504	297.37067	217.85559	1016.54474	156.56558	219.63759	984.05859	147.66541	351.22214	1101.17810	139.39981	298.04993	899.68982	48.73026	326.91132	873.34113	65.50802	277.52625	915.03583	51.04513	204.50266
1423	11.85000	761.25195	1024.85974	443.85190	535.98273	985.50189	523.12146	557.84137	673.70160	554.65747	542.33392	632.26117	555.46716	499.88660	692.74524	556.55133	490.66269	648.77991	557.69934	489.74957	519.66907	551.59949	458.92316	529.96606	415.75900	498.15433	412.31424	547.44434	481.34885	372.70374	545.15247	438.24197	429.98224	543.51959	430.88297	387.53421	540.22748	429.29913	102.55149	495.27768	397.15778	110.67486	415.91547	479.09235	58.90759	432.52856	288.56512	66.25557	547.82904	235.58139	87.62422	493.26880	245.01451	72.10125	447.14951	762.24261	1011.16254	337.86896	540.04456	982.95068	237.69585	719.85901	704.58472	202.54475	724.03528	663.11218	201.61893	660.53876	692.69574	189.85732	673.73907	647.26154	194.98216	710.20789	509.48151	213.07858	701.28448	503.19373	331.91296	886.43036	370.97653	220.16750	911.06323	330.62048	227.44302	837.96558	334.04388	213.88245	871.18640	298.85324	217.89886	1010.23199	162.83257	220.09392	978.02765	152.73108	351.56363	1095.65430	149.07555	298.98868	897.46222	50.02474	326.86221	870.76105	64.90096	276.89865	913.40448	51.86671	204.41200
1424	11.85833	753.53406	1026.64600	444.61533	527.85828	987.77191	525.25891	551.25385	674.80780	557.65985	536.41858	632.80554	557.82159	493.48740	692.96027	559.85840	484.65268	648.83130	560.95807	483.67029	520.13660	554.28076	452.59171	530.74377	418.46558	494.57007	413.54825	550.09857	477.02567	372.97751	547.02509	433.30081	429.84116	545.69440	426.50601	387.37534	542.31024	428.61658	102.64102	495.41019	396.48117	110.69645	416.17813	478.76083	59.40340	432.59091	287.82895	65.40963	547.89752	234.89767	86.49666	493.48746	244.44322	71.12045	447.35635	753.41687	1012.04498	338.73489	530.89948	983.32135	239.95636	704.47339	701.48291	203.31435	707.95746	658.99365	203.00780	645.39130	690.97015	191.35342	658.27490	645.67596	194.51215	690.50012	506.55768	213.62756	682.48816	500.27423	331.66940	871.87054	373.26288	220.31389	897.84943	333.88394	227.69969	824.41144	334.88098	213.87715	859.23993	300.50449	217.96776	1003.20190	169.83513	220.52565	970.59241	158.28638	351.61459	1088.85144	159.32115	299.92148	894.97687	51.69243	326.89554	867.84802	64.49651	276.27234	911.57953	53.16655	204.31305
1425	11.86667	745.65967	1027.81921	445.33273	520.27069	989.50238	527.77002	545.12714	675.66107	559.99170	530.16559	632.98987	558.08978	487.34641	692.95319	562.64557	478.61902	648.68604	563.03900	478.08176	520.55438	556.37811	446.80484	531.46271	420.53055	489.70389	413.92883	552.03979	473.15851	373.77448	549.35986	428.81952	429.73087	547.39398	422.66989	387.28156	544.34753	428.23907	102.82352	495.69019	396.06253	110.58850	416.14023	478.53799	59.60314	432.64502	287.68750	65.01793	547.76105	234.42776	85.81915	493.38690	244.08725	70.33736	447.24033	744.78693	1012.89697	339.61212	521.98114	983.81915	242.42120	688.76654	698.36682	204.02831	691.25330	655.82800	203.59169	628.90668	689.21082	192.55054	641.28925	643.86304	195.62990	670.83813	504.20416	213.97723	662.68323	497.28317	331.65353	856.51184	375.76288	220.79597	884.02289	337.33322	228.14688	810.33545	336.06442	214.09904	846.58093	302.59283	218.28465	995.28998	177.33951	220.89757	963.17096	164.54956	352.32431	1080.76599	169.86646	300.67096	891.51251	52.62944	326.41547	864.35236	64.56676	276.07120	909.28918	55.28646	204.34340
1426	11.87500	737.46729	1029.00061	446.29697	512.47900	991.37292	530.54065	539.33691	676.30469	561.83661	524.55933	633.38953	559.65369	481.49094	693.66632	566.14136	472.68387	648.72028	565.42603	473.05490	520.95679	557.94067	441.72565	532.03308	422.08792	486.32932	414.42590	552.83691	470.02200	373.86084	550.24725	424.80295	429.58466	548.60431	419.10526	387.22845	545.61450	427.83652	102.67620	495.54614	395.75336	110.60844	416.18640	478.33771	59.74249	432.75940	287.45355	64.57075	547.75427	234.07445	85.21526	493.47363	243.81104	69.77595	447.31976	736.35852	1013.75403	340.61896	513.26868	984.44244	244.87805	672.87518	695.34198	204.71234	674.62671	653.06317	204.02170	613.80731	688.28711	193.16740	624.10040	642.29321	196.82532	651.03748	502.42349	214.09647	642.37305	494.44614	331.84119	840.60663	378.38751	221.51462	870.81055	340.39890	227.33221	795.65430	337.52991	214.41898	833.38757	304.99817	218.77155	986.61060	185.23396	221.19687	954.48602	170.89102	352.29709	1072.27661	181.54419	301.28659	888.09247	54.55459	326.17929	859.93445	65.10003	276.02643	906.11267	57.85384	204.54172
1427	11.88333	729.51288	1030.13232	447.19635	504.89508	993.11523	533.19287	533.45068	676.85907	563.04803	518.65125	633.93091	560.68103	475.64789	694.42590	569.26166	467.39478	648.67761	566.83289	468.44385	521.38397	559.05103	437.13519	532.46112	423.27347	482.62061	414.88379	553.81055	466.85123	374.23999	551.04340	421.05649	429.54825	549.50446	415.71768	387.22879	546.35046	429.95721	102.06940	496.25507	395.37665	110.56553	416.14545	478.12512	59.92130	432.80316	287.15778	64.25572	547.58185	233.59833	84.54314	493.30347	243.51183	69.08178	447.26175	728.13831	1014.66632	341.65152	504.60391	985.12329	247.37796	656.85205	692.68854	205.35580	657.01617	650.08496	204.84171	595.40680	686.56995	197.21149	606.84705	641.04309	197.98471	629.83209	500.39072	215.16974	621.20746	492.06091	332.17404	824.72168	381.35529	222.15820	855.40662	345.57559	229.10756	782.51080	337.28705	213.21802	819.70947	307.67575	219.29840	977.13684	193.49899	221.50185	945.38702	177.56277	352.59259	1062.15881	192.98703	301.76706	884.27881	56.64769	325.64642	854.97583	65.80462	276.31757	902.35248	61.15433	204.91451
